HIERARCHY
ROOT Hips
{
  OFFSET 0 0 0
  CHANNELS 6 Xposition Yposition Zposition Zrotation Yrotation Xrotation
  JOINT LeftThigh
  {
    OFFSET 8.409438 0 -5.917753
    CHANNELS 3 Zrotation Yrotation Xrotation
    JOINT LeftLeg
    {
      OFFSET 0 0 -42.358652
      CHANNELS 3 Zrotation Yrotation Xrotation
      JOINT LeftFoot
      {
        OFFSET 0 0 -39.357303
        CHANNELS 3 Zrotation Yrotation Xrotation
      }
    }
  }
  JOINT RightThigh
  {
    OFFSET -8.409438 0 -5.917753
    CHANNELS 3 Zrotation Yrotation Xrotation
    JOINT RightLeg
    {
      OFFSET 0 0 -42.358652
      CHANNELS 3 Zrotation Yrotation Xrotation
      JOINT RightFoot
      {
        OFFSET 0 0 -39.357303
        CHANNELS 3 Zrotation Yrotation Xrotation
      }
    }
  }
  JOINT SpineLow
  {
    OFFSET 0 0 4.719101
    CHANNELS 3 Zrotation Yrotation Xrotation
    JOINT SpineMid
    {
      OFFSET 0 0 12.899191
      CHANNELS 3 Zrotation Yrotation Xrotation
      JOINT Chest
      {
        OFFSET 0 0 12.899191
        CHANNELS 3 Zrotation Yrotation Xrotation
        JOINT LeftShoulder
        {
          OFFSET 7.550562 1.41573 9.438202
          CHANNELS 3 Zrotation Yrotation Xrotation
          JOINT LeftArm
          {
            OFFSET 9.155056 0 4.247191
            CHANNELS 3 Zrotation Yrotation Xrotation
            JOINT LeftForearm
            {
              OFFSET 0 0 25.771955
              CHANNELS 3 Zrotation Yrotation Xrotation
              JOINT LeftHand
              {
                OFFSET 0 0 25.197169
                CHANNELS 3 Zrotation Yrotation Xrotation
              }
            }
          }
        }
        JOINT RightShoulder
        {
          OFFSET -7.550562 1.41573 9.438202
          CHANNELS 3 Zrotation Yrotation Xrotation
          JOINT RightArm
          {
            OFFSET -9.155056 0 4.247191
            CHANNELS 3 Zrotation Yrotation Xrotation
            JOINT RightForearm
            {
              OFFSET 0 0 -25.771955
              CHANNELS 3 Zrotation Yrotation Xrotation
              JOINT RightHand
              {
                OFFSET 0 0 -25.197169
                CHANNELS 3 Zrotation Yrotation Xrotation
              }
            }
          }
        }
        JOINT Neck
        {
          OFFSET 0 0 15.101124
          CHANNELS 3 Zrotation Yrotation Xrotation
          JOINT Head
          {
            OFFSET 0 0 11.325843
            CHANNELS 3 Zrotation Yrotation Xrotation
            End Site
            {
              OFFSET 0 0 14.157303
            }
          }
        }
      }
    }
  }
}
MOTION
Frames: 7
Frame Time: 0.0
0.0  89.887642  0.0  -0.628974  24.417389  -122.458259  10.139978  -9.337803  18.468248  -8.220006  11.502131  22.77909  -6.224152  -0.435011  -0.195507  -0.331395  7.907215  -93.510567  16.570003  19.493959  124.231987  15.797383  0.495779  3.556029  -3.863138  -0.992336  0.224467  -10.573927  -2.668657  0.770443  -10.573927  -2.668657  0.770443  8.873058  39.959688  40.513183  -161.926534  51.860259  -102.638332  -19.203458  -6.531041  45.81033  75.083905  -7.451444  13.245826  13.926167  14.363617  47.084077  35.529822  32.383225  -3.835126  -24.425507  12.593493  -76.070868  84.417046  -15.17788  14.3622  -25.943003  15.962679  14.786647  -19.736812  11.380307  11.73553  
0.0  89.887642  0.0  -0.30757  24.065527  -121.872406  10.827696  -9.470015  17.985618  -8.413716  11.733384  22.500859  -6.006096  -0.28405  -0.219024  -0.250634  8.324926  -92.630545  15.993591  19.465253  123.562522  15.893315  0.590432  3.586451  -3.786666  -0.937443  0.270034  -10.365419  -2.512919  0.883009  -10.365418  -2.512919  0.883009  8.382246  39.823973  39.946979  -161.476516  51.789729  -102.797477  -19.327983  -6.31881  45.569809  76.286813  -6.475263  15.331394  13.595946  14.457625  46.550642  35.95565  32.43696  -3.623538  -24.574269  13.097887  -75.484934  83.133841  -15.731794  14.520114  -25.978571  15.691438  14.665954  -19.757343  11.180342  11.636579  
0.0  89.887642  0.0  -0.014804  23.791214  -121.168708  11.443324  -9.607503  17.316356  -8.7024  12.12583  22.288272  -6.020063  -0.155971  -0.325783  -0.280082  8.596709  -92.132022  15.491889  19.317407  123.079644  16.005753  0.711239  3.608759  -3.721236  -0.882009  0.29725  -10.186295  -2.358598  0.946198  -10.186295  -2.358598  0.946198  7.8307  39.634654  39.296065  -161.434788  51.575966  -103.027358  -19.414203  -6.336586  45.299945  77.512967  -5.804639  16.886205  12.801206  14.607822  45.767768  36.910977  32.582288  -2.994705  -24.795942  13.128917  -74.994892  82.198942  -16.171034  15.124578  -25.943728  15.397995  14.61974  -19.727263  10.962158  11.590393  
0.0  89.887642  0.0  0.145766  23.419342  -120.411943  12.078538  -9.897782  16.469264  -8.851493  12.576987  22.186614  -5.918177  -0.074249  -0.35489  -0.329732  8.549772  -91.824798  15.017557  19.045637  122.563278  16.03363  0.803465  3.670943  -3.667797  -0.858716  0.31659  -10.040331  -2.293006  0.993513  -10.040331  -2.293006  0.993513  7.44805  39.468212  38.719106  -161.170858  51.334397  -103.168002  -19.356787  -6.296575  45.306382  78.698125  -5.517187  17.96746  12.630674  14.66703  45.352136  36.936931  32.509876  -2.849922  -24.825172  13.02065  -74.705867  81.127802  -16.536935  15.996679  -25.95219  15.049016  14.520124  -19.727464  10.703435  11.503461  
0.0  89.887642  0.0  0.356727  23.230511  -119.656128  12.379129  -9.846289  15.600401  -8.762905  12.905115  22.238966  -5.906804  0.001465  -0.394724  -0.592835  8.450525  -91.536812  14.688246  18.796636  122.071841  16.117331  0.902649  3.742587  -3.665599  -0.812264  0.312639  -10.033188  -2.167009  0.975584  -10.033188  -2.167009  0.975584  7.241678  39.295728  38.254826  -161.045649  50.9526  -103.240564  -18.950103  -6.614843  45.307697  80.00294  -5.342086  18.583132  12.253411  14.834509  44.922582  37.538451  32.467988  -2.427683  -24.961975  13.23143  -74.701161  79.335266  -17.016278  17.139594  -25.809463  14.728693  14.471412  -19.61649  10.467502  11.45152  
0.0  89.887642  0.0  0.535384  22.844303  -119.009802  12.728517  -9.782097  14.826739  -8.430777  13.070982  22.364931  -5.841368  0.028172  -0.410299  -0.796728  8.190028  -91.129715  14.447192  18.622858  121.580229  16.214121  0.997572  3.832906  -3.646896  -0.799053  0.331961  -9.982376  -2.12838  1.025672  -9.982376  -2.128379  1.025672  7.130989  39.215823  37.837609  -160.775308  50.688145  -103.305654  -18.318711  -6.857671  45.666844  81.123247  -5.267391  18.832994  12.335707  14.928235  44.746742  37.275733  32.394515  -2.455616  -24.871433  13.653483  -74.778895  77.093688  -17.525392  18.567779  -25.70887  14.413859  14.292074  -19.533562  10.24014  11.303356  
0.0  89.887642  0.0  0.808957  22.488339  -118.383162  12.938919  -9.500139  14.107108  -7.981105  13.135802  22.511125  -5.793433  0.029566  -0.388588  -1.022378  7.986519  -90.646176  14.278047  18.548878  121.132685  16.27619  1.111558  3.941719  -3.653545  -0.757057  0.34774  -10.000109  -2.011397  1.062534  -10.000108  -2.011397  1.062534  7.139114  39.07516  37.467365  -160.498826  50.424694  -103.363661  -17.734085  -7.172794  46.215629  81.995972  -5.285905  18.86781  13.114356  14.467606  45.051776  36.649219  32.48677  -2.569237  -25.083278  14.218988  -74.980728  75.040592  -18.228767  20.330916  -25.451851  14.086775  14.124464  -19.334105  10.006412  11.159567  
